<svg xmlns="http://www.w3.org/2000/svg" width="310.682" height="325.708"><g data-name="Group 7" fill="#fff"><path data-name="Path 28" d="M243.856 203.365v-80.19l-37.84-21.763v101.953z"/><path data-name="Path 29" d="M197.329 203.365V21.508L159.489 0v203.365z"/><path data-name="Path 30" d="M66.187 203.365v-80.19l37.84-21.763v101.953z"/><path data-name="Path 31" d="M112.959 203.365V21.508L150.799 0v203.365z"/><g data-name="Group 4"><path data-name="Path 32" d="M0 250.791h12.231l11.425 31.225h.185l11.3-31.225h12.29v43.951h-7.76V259.42h-.123L26.2 294.742h-5.469L7.569 259.42h-.124v35.322H-.004z"/><path data-name="Path 33" d="M55.001 272.643a24.6 24.6 0 011.769-9.528 20.9 20.9 0 014.9-7.231 21.672 21.672 0 017.449-4.594 26.611 26.611 0 019.4-1.615 27.051 27.051 0 019.5 1.615 21.975 21.975 0 017.513 4.594 20.7 20.7 0 014.935 7.231 24.6 24.6 0 011.77 9.528 24.251 24.251 0 01-1.77 9.405 21.682 21.682 0 01-4.935 7.325 22.426 22.426 0 01-7.513 4.78 25.756 25.756 0 01-9.5 1.706 25.339 25.339 0 01-9.4-1.706 21.678 21.678 0 01-12.353-12.105 24.25 24.25 0 01-1.765-9.405zm8.5 0a18.631 18.631 0 001.086 6.488 15.064 15.064 0 003.1 5.121 14.216 14.216 0 004.78 3.384 15.069 15.069 0 006.115 1.21 15.283 15.283 0 006.144-1.21 14.156 14.156 0 004.812-3.384 15.081 15.081 0 003.1-5.121 18.631 18.631 0 001.088-6.488 18 18 0 00-1.088-6.332 15.44 15.44 0 00-3.071-5.09 14.234 14.234 0 00-4.781-3.414 15.139 15.139 0 00-6.206-1.24 14.929 14.929 0 00-6.177 1.24 14.305 14.305 0 00-4.748 3.414 15.424 15.424 0 00-3.073 5.09 18 18 0 00-1.076 6.332z"/><path data-name="Path 34" d="M109.815 250.791h10.367l20.423 32.9h.124v-32.9h7.822v43.951h-9.932l-20.854-33.955h-.124v33.955h-7.826z"/><path data-name="Path 35" d="M167.111 257.621h-13.47v-6.83h34.762v6.83h-13.47v37.121h-7.822z"/><path data-name="Path 36" d="M193.494 250.791h29.113v6.83h-21.291v11.173h20.178v6.58h-20.178v12.415h22.41v6.953h-30.232z"/><path data-name="Path 37" d="M231.361 250.791h15.271a27.545 27.545 0 016.022.652 15.484 15.484 0 015.184 2.141 11.2 11.2 0 013.631 3.911 11.847 11.847 0 011.366 5.9 11.226 11.226 0 01-2.7 7.791 13.6 13.6 0 01-7.356 4.067l11.733 19.491h-9.441l-10.181-18.623h-5.711v18.623h-7.818zm14.216 18.934a22.783 22.783 0 003.352-.248 9.668 9.668 0 003.01-.93 5.886 5.886 0 002.2-1.956 5.661 5.661 0 00.869-3.26 5.011 5.011 0 00-.808-2.948 6.015 6.015 0 00-2.047-1.832 8.591 8.591 0 00-2.824-.93 19.786 19.786 0 00-3.073-.25h-7.077v12.353z"/><path data-name="Path 38" d="M284.189 250.791h6.767l18.935 43.951h-8.94l-4.1-10.057h-19.055l-3.974 10.057h-8.75zm9.932 27.19l-6.767-17.877-6.891 17.877z"/></g><path data-name="Rectangle 24" d="M200.001 241.813l13.77-7.95 2.99 5.18-13.769 7.95z"/><g data-name="Group 5"><path data-name="Path 39" d="M1.459 306.393h5.614a10.6 10.6 0 012.155.226 5.858 5.858 0 011.955.773 4.265 4.265 0 011.411 1.476 4.585 4.585 0 01.545 2.34 3.958 3.958 0 01-.91 2.595 4.275 4.275 0 01-2.434 1.451v.053a4.962 4.962 0 013.039 1.423 4.447 4.447 0 011.209 3.286 4.626 4.626 0 01-1.885 3.792 6.728 6.728 0 01-2.2 1.05 10.611 10.611 0 01-2.92.373H1.462zm1.916 8.246h3.858a6.306 6.306 0 001.4-.16 3.881 3.881 0 001.291-.544 2.917 2.917 0 00.944-1.025 3.161 3.161 0 00.36-1.57 3.03 3.03 0 00-.36-1.53 2.988 2.988 0 00-.97-1.024 4.181 4.181 0 00-1.437-.573 8.544 8.544 0 00-1.756-.174H3.379zm0 8.94h3.563a9.566 9.566 0 001.981-.2 5.082 5.082 0 001.649-.639 3.4 3.4 0 001.131-1.143 3.647 3.647 0 00-.839-4.471 6.01 6.01 0 00-3.578-.917H3.371z"/><path data-name="Path 40" d="M25.004 325.229h-1.916v-8.114l-7.05-10.722h2.394l5.667 9.125 5.72-9.125h2.235l-7.05 10.722z"/><path data-name="Path 41" d="M48.362 309.798a6.829 6.829 0 00-2.341-1.609 7.948 7.948 0 00-3.113-.574 7.725 7.725 0 00-3.258.665 7.364 7.364 0 00-2.46 1.793 8.014 8.014 0 00-1.557 2.616 9.272 9.272 0 000 6.27 7.847 7.847 0 001.557 2.6 7.473 7.473 0 002.46 1.78 7.745 7.745 0 003.258.664 11.612 11.612 0 002.927-.346 7.455 7.455 0 002.156-.878v-5.72h-4.395v-1.7h6.305v8.51a12.208 12.208 0 01-3.326 1.385 14.87 14.87 0 01-3.7.455 10.27 10.27 0 01-3.938-.745 9.2 9.2 0 01-5.141-5.188 10.477 10.477 0 01-.732-3.964 10.319 10.319 0 01.746-3.965 9.353 9.353 0 015.174-5.187 10.068 10.068 0 013.9-.745 10.494 10.494 0 013.939.675 8.5 8.5 0 012.872 1.878z"/><path data-name="Path 42" d="M69.247 309.798a6.836 6.836 0 00-2.34-1.609 7.959 7.959 0 00-3.114-.574 7.725 7.725 0 00-3.258.665 7.382 7.382 0 00-2.462 1.793 8.033 8.033 0 00-1.556 2.616 9.272 9.272 0 000 6.27 7.865 7.865 0 001.556 2.6 7.492 7.492 0 002.462 1.78 7.745 7.745 0 003.258.664 11.619 11.619 0 002.927-.346 7.445 7.445 0 002.155-.878v-5.72h-4.389v-1.7h6.3v8.51a12.143 12.143 0 01-3.326 1.385 14.853 14.853 0 01-3.7.455 10.266 10.266 0 01-3.938-.745 9.2 9.2 0 01-5.147-5.188 10.477 10.477 0 01-.732-3.964 10.3 10.3 0 01.746-3.965 9.353 9.353 0 015.174-5.187 10.069 10.069 0 013.9-.745 10.484 10.484 0 013.939.675 8.513 8.513 0 012.872 1.878z"/><path data-name="Path 43" d="M101.278 315.811a10.336 10.336 0 01-.744 3.964 9.35 9.35 0 01-5.174 5.188 10.572 10.572 0 01-7.8 0 9.358 9.358 0 01-5.175-5.188 10.923 10.923 0 010-7.929 9.361 9.361 0 015.175-5.187 10.572 10.572 0 017.8 0 9.353 9.353 0 015.174 5.187 10.343 10.343 0 01.744 3.965zm-2.021.013a9.276 9.276 0 00-.532-3.134 7.872 7.872 0 00-1.543-2.616 7.382 7.382 0 00-2.462-1.793 8.317 8.317 0 00-6.518 0 7.364 7.364 0 00-2.46 1.793 7.83 7.83 0 00-1.543 2.616 9.5 9.5 0 000 6.27 7.669 7.669 0 001.543 2.6 7.474 7.474 0 002.46 1.78 8.332 8.332 0 006.518 0 7.491 7.491 0 002.462-1.78 7.71 7.71 0 001.543-2.6 9.278 9.278 0 00.533-3.136z"/><path data-name="Path 44" d="M121.285 322.169a7.778 7.778 0 01-1.158 1.358 7.52 7.52 0 01-1.568 1.126 8.726 8.726 0 01-1.97.77 9.234 9.234 0 01-2.354.284 10.254 10.254 0 01-3.936-.745 9.205 9.205 0 01-5.149-5.188 10.453 10.453 0 01-.732-3.964 10.319 10.319 0 01.745-3.965 9.361 9.361 0 015.175-5.187 10.073 10.073 0 013.9-.745 9.725 9.725 0 013.911.823 8.048 8.048 0 011.6.941 5.508 5.508 0 011.2 1.242l-1.6 1.171a4.759 4.759 0 00-.784-.9 5.284 5.284 0 00-1.158-.8 7.308 7.308 0 00-1.449-.56 6.5 6.5 0 00-1.689-.213 7.813 7.813 0 00-3.286.664 7.4 7.4 0 00-2.462 1.79 7.8 7.8 0 00-1.542 2.612 9.179 9.179 0 00-.532 3.129 9 9 0 00.544 3.129 8.009 8.009 0 001.557 2.611 7.387 7.387 0 002.46 1.791 7.776 7.776 0 003.261.663 7.367 7.367 0 003.085-.665 5.87 5.87 0 002.449-2.128z"/><path data-name="Path 45" d="M124.743 306.393h1.917v8.168h10.268v-8.168h1.916v18.836h-1.916v-8.913H126.66v8.913h-1.917z"/><path data-name="Path 46" d="M150.815 306.393h5.615a10.607 10.607 0 012.155.226 5.868 5.868 0 011.955.773 4.25 4.25 0 011.41 1.476 4.585 4.585 0 01.546 2.34 3.952 3.952 0 01-.911 2.595 4.263 4.263 0 01-2.432 1.451v.053a4.962 4.962 0 013.039 1.423 4.452 4.452 0 011.21 3.285 4.622 4.622 0 01-1.886 3.792 6.716 6.716 0 01-2.2 1.05 10.6 10.6 0 01-2.92.373h-5.576zm1.917 8.246h3.858a6.315 6.315 0 001.4-.16 3.9 3.9 0 001.291-.544 2.929 2.929 0 00.944-1.025 3.161 3.161 0 00.359-1.57 3.029 3.029 0 00-.359-1.53 2.98 2.98 0 00-.972-1.024 4.175 4.175 0 00-1.435-.573 8.562 8.562 0 00-1.756-.174h-3.33zm0 8.94h3.564a9.578 9.578 0 001.983-.2 5.075 5.075 0 001.648-.639 3.389 3.389 0 001.131-1.143 3.648 3.648 0 00-.837-4.471 6.012 6.012 0 00-3.578-.917h-3.911z"/><path data-name="Path 47" d="M169.81 323.526h10.083v1.7h-12v-18.833h11.68v1.7h-9.763v6.466h9.125v1.7h-9.125z"/><path data-name="Path 48" d="M193.118 321.983h.025l6.307-15.59h2.925v18.836h-1.914v-16.362h-.053l-6.811 16.362h-1.011l-6.811-16.362h-.053v16.362h-1.917v-18.836h2.928z"/><path data-name="Path 49" d="M207.403 325.229h-2.1l8.141-18.836h1.862l8.088 18.836h-2.128l-2.075-4.948h-9.737zm2.767-6.7h8.3l-4.15-10z"/><path data-name="Path 50" d="M239.674 322.436h.053v-16.043h1.916v18.836h-2.394l-10.961-16.2h-.053v16.2h-1.916v-18.836h2.394z"/><path data-name="Path 51" d="M260.161 322.436h.053v-16.043h1.915v18.836h-2.394l-10.961-16.2h-.05v16.2h-1.915v-18.836h2.394z"/><path data-name="Path 52" d="M269.205 325.229h-1.915v-18.836h1.915z"/><path data-name="Path 53" d="M287.721 322.436h.053v-16.043h1.916v18.836h-2.394l-10.966-16.202h-.053v16.2h-1.915v-18.834h2.394z"/><path data-name="Path 54" d="M309.139 309.798a6.853 6.853 0 00-2.341-1.609 7.952 7.952 0 00-3.113-.574 7.735 7.735 0 00-3.26.665 7.394 7.394 0 00-2.462 1.793 8.033 8.033 0 00-1.556 2.616 9.292 9.292 0 000 6.27 7.864 7.864 0 001.556 2.6 7.5 7.5 0 002.462 1.78 7.755 7.755 0 003.26.664 11.626 11.626 0 002.926-.346 7.459 7.459 0 002.155-.878v-5.72h-4.39v-1.7h6.305v8.51a12.176 12.176 0 01-3.326 1.385 14.868 14.868 0 01-3.7.455 10.261 10.261 0 01-3.937-.745 9.2 9.2 0 01-5.147-5.188 10.453 10.453 0 01-.732-3.964 10.319 10.319 0 01.745-3.965 9.354 9.354 0 015.174-5.187 10.079 10.079 0 013.9-.745 10.482 10.482 0 013.937.675 8.506 8.506 0 012.873 1.878z"/></g></g></svg>