<svg xmlns="http://www.w3.org/2000/svg" viewBox="0 0 298.05 57.67"><defs><style>.cls-1{fill:#fff}</style></defs><g id="Lager_2" data-name="Lager 2"><g id="Lager_1-2" data-name="Lager 1"><g id="Lager_2-2" data-name="Lager 2"><g id="Lager_1-3" data-name="Lager 1"><path id="Path_1" data-name="Path 1" class="cls-1" d="M50.38 57.66V34.93l-10.73-6.17v28.9z"/><path id="Path_2" data-name="Path 2" class="cls-1" d="M37.18 57.66V6.1L26.45 0v57.66z"/><path id="Path_3" data-name="Path 3" class="cls-1" d="M0 57.66V34.93l10.73-6.17v28.9z"/><path id="Path_4" data-name="Path 4" class="cls-1" d="M13.26 57.66V6.1L24 0v57.66z"/></g></g><g id="Group_9" data-name="Group 9"><g id="Group_1" data-name="Group 1"><path id="Path_5" data-name="Path 5" class="cls-1" d="M62.57.88h9.27l8.66 23.67h.14L89.2.88h9.32v33.31h-5.89V7.42h-.09L82.42 34.19h-4.14l-10-26.77h-.1v26.77h-5.61z"/><path id="Path_6" data-name="Path 6" class="cls-1" d="M104.26 17.44a18.59 18.59 0 011.34-7.22 15.68 15.68 0 013.72-5.48A16.33 16.33 0 01115 1.25a21.65 21.65 0 0114.33 0A16.63 16.63 0 01135 4.74a15.6 15.6 0 013.74 5.48 18.6 18.6 0 011.35 7.22 18.34 18.34 0 01-1.35 7.13 16.24 16.24 0 01-3.74 5.55 16.78 16.78 0 01-5.69 3.62 19.49 19.49 0 01-7.2 1.3 19.29 19.29 0 01-7.13-1.3 16.4 16.4 0 01-9.36-9.17 18.33 18.33 0 01-1.36-7.13zm6.44 0a14 14 0 00.83 4.92 11.29 11.29 0 002.35 3.88 10.71 10.71 0 003.62 2.56 12.19 12.19 0 009.29 0 10.63 10.63 0 003.65-2.56 11.38 11.38 0 002.35-3.88 14 14 0 00.83-4.92 13.78 13.78 0 00-.83-4.8 11.7 11.7 0 00-2.32-3.86 11 11 0 00-3.63-2.59 12.17 12.17 0 00-9.38 0 10.9 10.9 0 00-3.6 2.59 11.73 11.73 0 00-2.33 3.86 13.78 13.78 0 00-.83 4.8z"/><path id="Path_7" data-name="Path 7" class="cls-1" d="M145.81.88h7.85l15.48 24.94h.1V.88h5.93v33.31h-7.53L151.83 8.45h-.09v25.74h-5.93z"/><path id="Path_8" data-name="Path 8" class="cls-1" d="M189.24 6.05H179V.87h26.34v5.18h-10.18v28.14h-5.92z"/><path id="Path_9" data-name="Path 9" class="cls-1" d="M209.23.88h22.07v5.17h-16.14v8.47h15.29v5h-15.29v9.41h17v5.27h-22.93z"/><path id="Path_10" data-name="Path 10" class="cls-1" d="M237.93.88h11.58a20.61 20.61 0 014.56.49A11.89 11.89 0 01258 3a8.51 8.51 0 012.75 3 8.9 8.9 0 011 4.47 8.51 8.51 0 01-2.05 5.91 10.34 10.34 0 01-5.57 3.08l8.89 14.77h-7.15l-7.72-14.12h-4.33v14.08h-5.93zm10.78 14.35a16.61 16.61 0 002.54-.19 7.35 7.35 0 002.28-.7 4.33 4.33 0 001.67-1.48 4.24 4.24 0 00.66-2.47 3.78 3.78 0 00-.61-2.24 4.59 4.59 0 00-1.55-1.39 6.73 6.73 0 00-2.14-.7 16.51 16.51 0 00-2.33-.19h-5.37v9.37z"/><path id="Path_11" data-name="Path 11" class="cls-1" d="M278 .88h5.13l14.36 33.31h-6.78l-3.1-7.62h-14.48l-3 7.62h-6.63zm7.53 20.61l-5.16-13.55-5.22 13.55z"/></g><g id="Group_2" data-name="Group 2"><path id="Path_12" data-name="Path 12" class="cls-1" d="M63.68 43h4.25a8.05 8.05 0 011.63.17 4.55 4.55 0 011.48.59 3.22 3.22 0 011.08 1.12 3.5 3.5 0 01.41 1.77 3 3 0 01-.69 2A3.27 3.27 0 0170 49.74a3.7 3.7 0 012.3 1.08 3.34 3.34 0 01.92 2.49 3.5 3.5 0 01-1.43 2.87 5 5 0 01-1.67.8 7.84 7.84 0 01-2.21.28h-4.24zm1.45 6.25h2.92a4.72 4.72 0 001.06-.12 3.14 3.14 0 001-.41 2.34 2.34 0 00.72-.78 2.42 2.42 0 00.27-1.19 2.36 2.36 0 00-.27-1.16 2.27 2.27 0 00-.74-.77A3.05 3.05 0 0069 44.4a6.59 6.59 0 00-1.33-.13h-2.54zm0 6.78h2.7a7.63 7.63 0 001.5-.15 3.83 3.83 0 001.25-.49 2.5 2.5 0 00.85-.86 2.75 2.75 0 00-.63-3.39 4.56 4.56 0 00-2.71-.7h-3z"/><path id="Path_13" data-name="Path 13" class="cls-1" d="M81.52 57.3h-1.45v-6.15L74.73 43h1.81l4.3 6.92L85.18 43h1.69l-5.34 8.13z"/><path id="Path_14" data-name="Path 14" class="cls-1" d="M99.23 45.6a5.33 5.33 0 00-1.78-1.22 6 6 0 00-2.36-.38 5.69 5.69 0 00-2.47.5 5.56 5.56 0 00-1.86 1.36 6 6 0 00-1.18 2 7 7 0 000 4.75 5.82 5.82 0 001.18 2 5.4 5.4 0 001.86 1.35 5.69 5.69 0 002.47.5 8.75 8.75 0 002.22-.26 5.53 5.53 0 001.63-.66V51.1h-3.32v-1.28h4.78v6.45a9.41 9.41 0 01-2.52 1 11.55 11.55 0 01-2.8.35 7.83 7.83 0 01-3-.57 7 7 0 01-3.9-3.93 8.41 8.41 0 010-6 7.1 7.1 0 013.92-3.93 7.67 7.67 0 013-.56 7.76 7.76 0 013 .51 6.33 6.33 0 012.18 1.42z"/><path id="Path_15" data-name="Path 15" class="cls-1" d="M115.06 45.6a5.33 5.33 0 00-1.78-1.22 6 6 0 00-2.36-.43 5.69 5.69 0 00-2.47.5 5.56 5.56 0 00-1.86 1.36 6 6 0 00-1.18 2 7 7 0 000 4.75 5.82 5.82 0 001.18 2 5.4 5.4 0 001.86 1.35 5.69 5.69 0 002.47.5 8.75 8.75 0 002.22-.26 5.53 5.53 0 001.63-.66V51.1h-3.32v-1.28h4.78v6.45a9.41 9.41 0 01-2.52 1 11.57 11.57 0 01-2.81.35 7.82 7.82 0 01-3-.57 7 7 0 01-3.9-3.93 7.9 7.9 0 01-.55-3 7.77 7.77 0 01.56-3 7.1 7.1 0 013.99-3.89 8.51 8.51 0 015.94 0 6.33 6.33 0 012.18 1.42z"/><path id="Path_16" data-name="Path 16" class="cls-1" d="M139.34 50.16a7.87 7.87 0 01-.56 3 7.09 7.09 0 01-3.93 3.93 7.94 7.94 0 01-5.91 0 7.1 7.1 0 01-3.94-3.93 8.31 8.31 0 010-6 7.07 7.07 0 013.92-3.93 8 8 0 015.91 0 7.07 7.07 0 013.92 3.93 7.78 7.78 0 01.59 3zm-1.53 0a7.17 7.17 0 00-.4-2.38 6.1 6.1 0 00-1.17-2 5.59 5.59 0 00-1.87-1.36 6.32 6.32 0 00-4.94 0 5.56 5.56 0 00-1.86 1.36 5.77 5.77 0 00-1.17 2 7.2 7.2 0 000 4.76 5.68 5.68 0 003 3.32 6.32 6.32 0 004.94 0 5.81 5.81 0 001.87-1.35 6 6 0 001.17-2 6.91 6.91 0 00.39-2.38z"/><path id="Path_17" data-name="Path 17" class="cls-1" d="M154.5 55a5.78 5.78 0 01-.88 1 5.86 5.86 0 01-1.19.85 6.56 6.56 0 01-3.27.8 7.82 7.82 0 01-3-.56 7 7 0 01-3.9-3.94 8.39 8.39 0 010-6 7.09 7.09 0 013.93-3.93 7.63 7.63 0 012.95-.57 7.35 7.35 0 013 .63 6.1 6.1 0 011.21.71 4.06 4.06 0 01.91.94l-1.21.89a3.91 3.91 0 00-.59-.69 4 4 0 00-.88-.6 5.42 5.42 0 00-1.1-.42 4.63 4.63 0 00-1.28-.16 5.72 5.72 0 00-4.36 1.85 6.1 6.1 0 00-1.17 2 7.17 7.17 0 000 4.75 6.31 6.31 0 001.18 2 5.57 5.57 0 001.87 1.35 5.69 5.69 0 002.47.5 5.41 5.41 0 002.34-.5 4.46 4.46 0 001.86-1.61z"/><path id="Path_18" data-name="Path 18" class="cls-1" d="M157.12 43h1.45v6.19h7.79V43h1.45v14.3h-1.45v-6.76h-7.79v6.76h-1.45z"/><path id="Path_19" data-name="Path 19" class="cls-1" d="M176.88 43h4.26a8.13 8.13 0 011.63.17 4.55 4.55 0 011.48.59 3.1 3.1 0 011.07 1.12 3.41 3.41 0 01.42 1.77 3.05 3.05 0 01-.69 2 3.22 3.22 0 01-1.85 1.1 3.73 3.73 0 012.3 1.08 3.34 3.34 0 01.92 2.49 3.5 3.5 0 01-1.42 2.9 5 5 0 01-1.67.8 7.88 7.88 0 01-2.21.28h-4.23zm1.46 6.25h2.92a4.72 4.72 0 001.06-.12 3.14 3.14 0 001-.41 2.23 2.23 0 001-2 2.15 2.15 0 00-1-1.93 3.21 3.21 0 00-1.09-.44 6.66 6.66 0 00-1.33-.13h-2.52zm0 6.78H181a7.63 7.63 0 001.5-.15 3.83 3.83 0 001.25-.49 2.5 2.5 0 00.85-.86 2.77 2.77 0 00-.63-3.39 4.57 4.57 0 00-2.72-.7h-3z"/><path id="Path_20" data-name="Path 20" class="cls-1" d="M191.28 56h7.64v1.3h-9.09V43h8.86v1.29h-7.4v4.9h6.91v1.3h-6.91z"/><path id="Path_21" data-name="Path 21" class="cls-1" d="M209 54.84L213.75 43H216v14.3h-1.45V44.9l-5.16 12.4h-.77l-5.16-12.4v12.4h-1.45V43h2.22z"/><path id="Path_22" data-name="Path 22" class="cls-1" d="M219.78 57.3h-1.6l6.17-14.3h1.41l6.13 14.28h-1.61l-1.57-3.75h-7.38zm2.1-5.08h6.28L225 44.63z"/><path id="Path_23" data-name="Path 23" class="cls-1" d="M244.24 55.18V43h1.45v14.3h-1.82L235.6 45v12.3h-1.45V43h1.82z"/><path id="Path_24" data-name="Path 24" class="cls-1" d="M259.76 55.18V43h1.46v14.3h-1.82L251.14 45v12.3h-1.46V43h1.82z"/><path id="Path_25" data-name="Path 25" class="cls-1" d="M266.62 57.3h-1.46V43h1.46z"/><path id="Path_26" data-name="Path 26" class="cls-1" d="M280.65 55.18V43h1.46v14.3h-1.82L272 45v12.3h-1.45V43h1.82z"/><path id="Path_27" data-name="Path 27" class="cls-1" d="M296.88 45.6a5.29 5.29 0 00-1.77-1.22 6 6 0 00-2.36-.43 5.69 5.69 0 00-2.47.5 5.59 5.59 0 00-1.87 1.36 6.31 6.31 0 00-1.18 2 7 7 0 000 4.75 6.15 6.15 0 001.18 2 5.53 5.53 0 001.87 1.35 5.69 5.69 0 002.47.5 8.75 8.75 0 002.25-.31 5.76 5.76 0 001.63-.66V51.1h-3.33v-1.28h4.78v6.45a9.15 9.15 0 01-2.52 1 11.43 11.43 0 01-2.8.35 7.82 7.82 0 01-3-.57 7 7 0 01-3.9-3.93 7.91 7.91 0 01-.56-3 7.78 7.78 0 01.57-3 7.07 7.07 0 013.92-3.93 7.66 7.66 0 013-.56 7.81 7.81 0 013 .51 6.33 6.33 0 012.18 1.42z"/></g></g></g></g></svg>