<svg xmlns="http://www.w3.org/2000/svg" viewBox="0 0 298.05 57.67"><defs><style>.cls-1{fill:#fff;}</style></defs><title>logo</title><g id="Lager_2" data-name="Lager 2"><g id="Lager_1-2" data-name="Lager 1"><g id="Lager_2-2" data-name="Lager 2"><g id="Lager_1-3" data-name="Lager 1"><path id="Path_1" data-name="Path 1" class="cls-1" d="M50.38,57.66V34.93L39.65,28.76v28.9Z"/><path id="Path_2" data-name="Path 2" class="cls-1" d="M37.18,57.66V6.1L26.45,0V57.66Z"/><path id="Path_3" data-name="Path 3" class="cls-1" d="M0,57.66V34.93l10.73-6.17v28.9Z"/><path id="Path_4" data-name="Path 4" class="cls-1" d="M13.26,57.66V6.1L24,0V57.66Z"/></g></g><g id="Group_9" data-name="Group 9"><g id="Group_1" data-name="Group 1"><path id="Path_5" data-name="Path 5" class="cls-1" d="M62.57.88h9.27L80.5,24.55h.14L89.2.88h9.32V34.19H92.63V7.42h-.09L82.42,34.19H78.28l-10-26.77h-.1V34.19H62.57Z"/><path id="Path_6" data-name="Path 6" class="cls-1" d="M104.26,17.44a18.59,18.59,0,0,1,1.34-7.22,15.68,15.68,0,0,1,3.72-5.48A16.33,16.33,0,0,1,115,1.25a21.65,21.65,0,0,1,14.33,0A16.63,16.63,0,0,1,135,4.74a15.6,15.6,0,0,1,3.74,5.48,18.6,18.6,0,0,1,1.35,7.22,18.34,18.34,0,0,1-1.35,7.13A16.24,16.24,0,0,1,135,30.12a16.78,16.78,0,0,1-5.69,3.62,19.49,19.49,0,0,1-7.2,1.3,19.29,19.29,0,0,1-7.13-1.3,16.4,16.4,0,0,1-9.36-9.17A18.33,18.33,0,0,1,104.26,17.44Zm6.44,0a14,14,0,0,0,.83,4.92,11.29,11.29,0,0,0,2.35,3.88,10.71,10.71,0,0,0,3.62,2.56,12.19,12.19,0,0,0,9.29,0,10.63,10.63,0,0,0,3.65-2.56,11.38,11.38,0,0,0,2.35-3.88,14,14,0,0,0,.83-4.92,13.78,13.78,0,0,0-.83-4.8,11.7,11.7,0,0,0-2.32-3.86,11,11,0,0,0-3.63-2.59,12.17,12.17,0,0,0-9.38,0,10.9,10.9,0,0,0-3.6,2.59,11.73,11.73,0,0,0-2.33,3.86A13.78,13.78,0,0,0,110.7,17.44Z"/><path id="Path_7" data-name="Path 7" class="cls-1" d="M145.81.88h7.85l15.48,24.94h.1V.88h5.93V34.19h-7.53L151.83,8.45h-.09V34.19h-5.93Z"/><path id="Path_8" data-name="Path 8" class="cls-1" d="M189.24,6.05H179V.87h26.34V6.05H195.16V34.19h-5.92Z"/><path id="Path_9" data-name="Path 9" class="cls-1" d="M209.23.88H231.3V6.05H215.16v8.47h15.29v5H215.16v9.41h17v5.27H209.23Z"/><path id="Path_10" data-name="Path 10" class="cls-1" d="M237.93.88h11.58a20.61,20.61,0,0,1,4.56.49A11.89,11.89,0,0,1,258,3a8.51,8.51,0,0,1,2.75,3,8.9,8.9,0,0,1,1,4.47,8.51,8.51,0,0,1-2.05,5.91,10.34,10.34,0,0,1-5.57,3.08l8.89,14.77h-7.15l-7.72-14.12h-4.33V34.19h-5.93Zm10.78,14.35a16.61,16.61,0,0,0,2.54-.19,7.35,7.35,0,0,0,2.28-.7,4.33,4.33,0,0,0,1.67-1.48,4.24,4.24,0,0,0,.66-2.47,3.78,3.78,0,0,0-.61-2.24,4.59,4.59,0,0,0-1.55-1.39,6.73,6.73,0,0,0-2.14-.7,16.51,16.51,0,0,0-2.33-.19h-5.37v9.37Z"/><path id="Path_11" data-name="Path 11" class="cls-1" d="M278,.88h5.13l14.36,33.31h-6.78l-3.1-7.62H273.13l-3,7.62h-6.63Zm7.53,20.61L280.37,7.94l-5.22,13.55Z"/></g><g id="Group_2" data-name="Group 2"><path id="Path_12" data-name="Path 12" class="cls-1" d="M63.68,43h4.25a8.05,8.05,0,0,1,1.63.17,4.55,4.55,0,0,1,1.48.59,3.22,3.22,0,0,1,1.08,1.12,3.5,3.5,0,0,1,.41,1.77,3,3,0,0,1-.69,2A3.27,3.27,0,0,1,70,49.74v0a3.7,3.7,0,0,1,2.3,1.08,3.34,3.34,0,0,1,.92,2.49,3.5,3.5,0,0,1-1.43,2.87,5,5,0,0,1-1.67.8,7.84,7.84,0,0,1-2.21.28H63.67Zm1.45,6.25h2.92a4.72,4.72,0,0,0,1.06-.12,3.14,3.14,0,0,0,1-.41,2.34,2.34,0,0,0,.72-.78,2.42,2.42,0,0,0,.27-1.19,2.36,2.36,0,0,0-.27-1.16,2.27,2.27,0,0,0-.74-.77A3.05,3.05,0,0,0,69,44.4a6.59,6.59,0,0,0-1.33-.13H65.13Zm0,6.78h2.7a7.63,7.63,0,0,0,1.5-.15,3.83,3.83,0,0,0,1.25-.49,2.5,2.5,0,0,0,.85-.86,2.75,2.75,0,0,0-.63-3.39,4.56,4.56,0,0,0-2.71-.7h-3Z"/><path id="Path_13" data-name="Path 13" class="cls-1" d="M81.52,57.3H80.07V51.15L74.73,43h1.81l4.3,6.92L85.18,43h1.69l-5.34,8.13Z"/><path id="Path_14" data-name="Path 14" class="cls-1" d="M99.23,45.6a5.33,5.33,0,0,0-1.78-1.22A6,6,0,0,0,95.09,44a5.69,5.69,0,0,0-2.47.5,5.56,5.56,0,0,0-1.86,1.36,6,6,0,0,0-1.18,2,7,7,0,0,0,0,4.75,5.82,5.82,0,0,0,1.18,2,5.4,5.4,0,0,0,1.86,1.35,5.69,5.69,0,0,0,2.47.5,8.75,8.75,0,0,0,2.22-.26,5.53,5.53,0,0,0,1.63-.66V51.1H95.62V49.82h4.78v6.45a9.41,9.41,0,0,1-2.52,1,11.55,11.55,0,0,1-2.8.35,7.83,7.83,0,0,1-3-.57,7,7,0,0,1-3.9-3.93,8.41,8.41,0,0,1,0-6,7.1,7.1,0,0,1,3.92-3.93,7.67,7.67,0,0,1,3-.56,7.76,7.76,0,0,1,3,.51,6.33,6.33,0,0,1,2.18,1.42Z"/><path id="Path_15" data-name="Path 15" class="cls-1" d="M115.06,45.6a5.33,5.33,0,0,0-1.78-1.22,6,6,0,0,0-2.36-.43,5.69,5.69,0,0,0-2.47.5,5.56,5.56,0,0,0-1.86,1.36,6,6,0,0,0-1.18,2,7,7,0,0,0,0,4.75,5.82,5.82,0,0,0,1.18,2,5.4,5.4,0,0,0,1.86,1.35,5.69,5.69,0,0,0,2.47.5,8.75,8.75,0,0,0,2.22-.26,5.53,5.53,0,0,0,1.63-.66V51.1h-3.32V49.82h4.78v6.45a9.41,9.41,0,0,1-2.52,1,11.57,11.57,0,0,1-2.81.35,7.82,7.82,0,0,1-3-.57,7,7,0,0,1-3.9-3.93,7.9,7.9,0,0,1-.55-3,7.77,7.77,0,0,1,.56-3A7.1,7.1,0,0,1,108,43.23a8.51,8.51,0,0,1,5.94,0,6.33,6.33,0,0,1,2.18,1.42Z"/><path id="Path_16" data-name="Path 16" class="cls-1" d="M139.34,50.16a7.87,7.87,0,0,1-.56,3,7.09,7.09,0,0,1-3.93,3.93,7.94,7.94,0,0,1-5.91,0A7.1,7.1,0,0,1,125,53.16a8.31,8.31,0,0,1,0-6,7.07,7.07,0,0,1,3.92-3.93,8,8,0,0,1,5.91,0,7.07,7.07,0,0,1,3.92,3.93A7.78,7.78,0,0,1,139.34,50.16Zm-1.53,0a7.17,7.17,0,0,0-.4-2.38,6.1,6.1,0,0,0-1.17-2,5.59,5.59,0,0,0-1.87-1.36,6.32,6.32,0,0,0-4.94,0,5.56,5.56,0,0,0-1.86,1.36,5.77,5.77,0,0,0-1.17,2,7.2,7.2,0,0,0,0,4.76,5.68,5.68,0,0,0,3,3.32,6.32,6.32,0,0,0,4.94,0,5.81,5.81,0,0,0,1.87-1.35,6,6,0,0,0,1.17-2,6.91,6.91,0,0,0,.39-2.38Z"/><path id="Path_17" data-name="Path 17" class="cls-1" d="M154.5,55a5.78,5.78,0,0,1-.88,1,5.86,5.86,0,0,1-1.19.85,6.56,6.56,0,0,1-3.27.8,7.82,7.82,0,0,1-3-.56,7,7,0,0,1-3.9-3.94,8.39,8.39,0,0,1,0-6,7.09,7.09,0,0,1,3.93-3.93,7.63,7.63,0,0,1,2.95-.57,7.35,7.35,0,0,1,3,.63,6.1,6.1,0,0,1,1.21.71,4.06,4.06,0,0,1,.91.94l-1.21.89a3.91,3.91,0,0,0-.59-.69,4,4,0,0,0-.88-.6,5.42,5.42,0,0,0-1.1-.42,4.63,4.63,0,0,0-1.28-.16,5.72,5.72,0,0,0-4.36,1.85,6.1,6.1,0,0,0-1.17,2,7.17,7.17,0,0,0,0,4.75,6.31,6.31,0,0,0,1.18,2,5.57,5.57,0,0,0,1.87,1.35,5.69,5.69,0,0,0,2.47.5,5.41,5.41,0,0,0,2.34-.5,4.46,4.46,0,0,0,1.86-1.61Z"/><path id="Path_18" data-name="Path 18" class="cls-1" d="M157.12,43h1.45v6.19h7.79V43h1.45V57.3h-1.45V50.54h-7.79V57.3h-1.45Z"/><path id="Path_19" data-name="Path 19" class="cls-1" d="M176.88,43h4.26a8.13,8.13,0,0,1,1.63.17,4.55,4.55,0,0,1,1.48.59,3.1,3.1,0,0,1,1.07,1.12,3.41,3.41,0,0,1,.42,1.77,3.05,3.05,0,0,1-.69,2,3.22,3.22,0,0,1-1.85,1.1v0a3.73,3.73,0,0,1,2.3,1.08,3.34,3.34,0,0,1,.92,2.49A3.5,3.5,0,0,1,185,56.22a5,5,0,0,1-1.67.8,7.88,7.88,0,0,1-2.21.28h-4.23Zm1.46,6.25h2.92a4.72,4.72,0,0,0,1.06-.12,3.14,3.14,0,0,0,1-.41,2.23,2.23,0,0,0,1-2,2.15,2.15,0,0,0-1-1.93,3.21,3.21,0,0,0-1.09-.44,6.66,6.66,0,0,0-1.33-.13h-2.52Zm0,6.78H181a7.63,7.63,0,0,0,1.5-.15,3.83,3.83,0,0,0,1.25-.49,2.5,2.5,0,0,0,.85-.86,2.77,2.77,0,0,0-.63-3.39,4.57,4.57,0,0,0-2.72-.7h-3Z"/><path id="Path_20" data-name="Path 20" class="cls-1" d="M191.28,56h7.64V57.3h-9.09V43h8.86v1.29h-7.4v4.9h6.91v1.3h-6.91Z"/><path id="Path_21" data-name="Path 21" class="cls-1" d="M209,54.84h0L213.75,43H216V57.3h-1.45V44.9h0l-5.16,12.4h-.77l-5.16-12.4h0V57.3h-1.45V43h2.22Z"/><path id="Path_22" data-name="Path 22" class="cls-1" d="M219.78,57.3h-1.6L224.35,43h1.41l6.13,14.28h-1.61l-1.57-3.75h-7.38Zm2.1-5.08h6.28L225,44.63Z"/><path id="Path_23" data-name="Path 23" class="cls-1" d="M244.24,55.18h0V43h1.45V57.3h-1.82L235.6,45h0V57.3h-1.45V43h1.82Z"/><path id="Path_24" data-name="Path 24" class="cls-1" d="M259.76,55.18h0V43h1.46V57.3h-1.82L251.14,45h0V57.3h-1.46V43h1.82Z"/><path id="Path_25" data-name="Path 25" class="cls-1" d="M266.62,57.3h-1.46V43h1.46Z"/><path id="Path_26" data-name="Path 26" class="cls-1" d="M280.65,55.18h0V43h1.46V57.3h-1.82L272,45h0V57.3h-1.45V43h1.82Z"/><path id="Path_27" data-name="Path 27" class="cls-1" d="M296.88,45.6a5.29,5.29,0,0,0-1.77-1.22,6,6,0,0,0-2.36-.43,5.69,5.69,0,0,0-2.47.5,5.59,5.59,0,0,0-1.87,1.36,6.31,6.31,0,0,0-1.18,2,7,7,0,0,0,0,4.75,6.15,6.15,0,0,0,1.18,2,5.53,5.53,0,0,0,1.87,1.35,5.69,5.69,0,0,0,2.47.5A8.75,8.75,0,0,0,295,56.1a5.76,5.76,0,0,0,1.63-.66V51.1h-3.33V49.82h4.78v6.45a9.15,9.15,0,0,1-2.52,1,11.43,11.43,0,0,1-2.8.35,7.82,7.82,0,0,1-3-.57,7,7,0,0,1-3.9-3.93,7.91,7.91,0,0,1-.56-3,7.78,7.78,0,0,1,.57-3,7.07,7.07,0,0,1,3.92-3.93,7.66,7.66,0,0,1,3-.56,7.81,7.81,0,0,1,3,.51,6.33,6.33,0,0,1,2.18,1.42Z"/></g></g></g></g></svg>