<svg xmlns="http://www.w3.org/2000/svg" width="310.682" height="325.708" viewBox="0 0 310.682 325.708">
  <g id="Group_7" data-name="Group 7" transform="translate(-175.369 -42.569)">
    <path id="Path_28" data-name="Path 28" d="M375.825,224.57V144.38l-37.84-21.763V224.57Z" transform="translate(43.4 21.364)" fill="#fff"/>
    <path id="Path_29" data-name="Path 29" d="M339.1,245.934V64.077l-37.84-21.508V245.934Z" transform="translate(33.598 0)" fill="#fff"/>
    <path id="Path_30" data-name="Path 30" d="M227.613,224.57V144.38l37.84-21.763V224.57Z" transform="translate(13.943 21.364)" fill="#fff"/>
    <path id="Path_31" data-name="Path 31" d="M264.531,245.934V64.077l37.84-21.508V245.934Z" transform="translate(23.797 0)" fill="#fff"/>
    <g id="Group_4" data-name="Group 4" transform="translate(175.369 292.243)">
      <path id="Path_32" data-name="Path 32" d="M175.369,240.527H187.6l11.425,31.225h.185l11.3-31.225h12.29v43.951h-7.76V249.156h-.123l-13.348,35.322H196.1l-13.162-35.322h-.124v35.322h-7.449Z" transform="translate(-175.369 -239.41)" fill="#fff"/>
      <path id="Path_33" data-name="Path 33" d="M218.783,262.614a24.6,24.6,0,0,1,1.769-9.528,20.9,20.9,0,0,1,4.9-7.231,21.672,21.672,0,0,1,7.449-4.594,26.611,26.611,0,0,1,9.4-1.615,27.051,27.051,0,0,1,9.5,1.615,21.975,21.975,0,0,1,7.513,4.594,20.7,20.7,0,0,1,4.935,7.231,24.6,24.6,0,0,1,1.77,9.528,24.251,24.251,0,0,1-1.77,9.405,21.682,21.682,0,0,1-4.935,7.325,22.426,22.426,0,0,1-7.513,4.78,25.756,25.756,0,0,1-9.5,1.706,25.339,25.339,0,0,1-9.4-1.706,21.678,21.678,0,0,1-12.353-12.105A24.25,24.25,0,0,1,218.783,262.614Zm8.5,0a18.631,18.631,0,0,0,1.086,6.488,15.064,15.064,0,0,0,3.1,5.121,14.216,14.216,0,0,0,4.78,3.384,15.069,15.069,0,0,0,6.115,1.21,15.283,15.283,0,0,0,6.144-1.21,14.156,14.156,0,0,0,4.812-3.384,15.081,15.081,0,0,0,3.1-5.121,18.631,18.631,0,0,0,1.088-6.488,18,18,0,0,0-1.088-6.332,15.44,15.44,0,0,0-3.071-5.09,14.234,14.234,0,0,0-4.781-3.414,15.139,15.139,0,0,0-6.206-1.24,14.929,14.929,0,0,0-6.177,1.24,14.305,14.305,0,0,0-4.748,3.414,15.424,15.424,0,0,0-3.073,5.09A18,18,0,0,0,227.288,262.614Z" transform="translate(-163.782 -239.645)" fill="#fff"/>
      <path id="Path_34" data-name="Path 34" d="M262.05,240.527h10.367l20.423,32.9h.124v-32.9h7.822v43.951h-9.932L270,250.523h-.124v33.955H262.05Z" transform="translate(-152.235 -239.41)" fill="#fff"/>
      <path id="Path_35" data-name="Path 35" d="M310.113,247.357h-13.47v-6.83h34.762v6.83H317.935v37.121h-7.822Z" transform="translate(-143.002 -239.41)" fill="#fff"/>
      <path id="Path_36" data-name="Path 36" d="M328.1,240.527h29.113v6.83H335.922V258.53H356.1v6.58H335.922v12.415h22.41v6.953H328.1Z" transform="translate(-134.606 -239.41)" fill="#fff"/>
      <path id="Path_37" data-name="Path 37" d="M357.99,240.527h15.271a27.545,27.545,0,0,1,6.022.652,15.484,15.484,0,0,1,5.184,2.141,11.2,11.2,0,0,1,3.631,3.911,11.847,11.847,0,0,1,1.366,5.9,11.226,11.226,0,0,1-2.7,7.791,13.6,13.6,0,0,1-7.356,4.067l11.733,19.491H381.7l-10.181-18.623h-5.711v18.623H357.99Zm14.216,18.934a22.783,22.783,0,0,0,3.352-.248,9.668,9.668,0,0,0,3.01-.93,5.886,5.886,0,0,0,2.2-1.956,5.661,5.661,0,0,0,.869-3.26,5.011,5.011,0,0,0-.808-2.948,6.015,6.015,0,0,0-2.047-1.832,8.591,8.591,0,0,0-2.824-.93,19.786,19.786,0,0,0-3.073-.25h-7.077v12.353Z" transform="translate(-126.629 -239.41)" fill="#fff"/>
      <path id="Path_38" data-name="Path 38" d="M403.717,240.527h6.767l18.935,43.951h-8.94l-4.1-10.057H397.324l-3.974,10.057H384.6Zm9.932,27.19-6.767-17.877-6.891,17.877Z" transform="translate(-119.528 -239.41)" fill="#fff"/>
    </g>
    <rect id="Rectangle_24" data-name="Rectangle 24" width="15.9" height="5.982" transform="translate(375.37 284.382) rotate(-30)" fill="#fff"/>
    <g id="Group_5" data-name="Group 5" transform="translate(176.828 348.483)">
      <path id="Path_39" data-name="Path 39" d="M176.521,284.416h5.614a10.6,10.6,0,0,1,2.155.226,5.858,5.858,0,0,1,1.955.773,4.265,4.265,0,0,1,1.411,1.476,4.585,4.585,0,0,1,.545,2.34,3.958,3.958,0,0,1-.91,2.595,4.275,4.275,0,0,1-2.434,1.451v.053a4.962,4.962,0,0,1,3.039,1.423,4.447,4.447,0,0,1,1.209,3.286,4.626,4.626,0,0,1-1.885,3.792,6.728,6.728,0,0,1-2.2,1.05,10.611,10.611,0,0,1-2.92.373h-5.576Zm1.916,8.246h3.858a6.306,6.306,0,0,0,1.4-.16,3.881,3.881,0,0,0,1.291-.544,2.917,2.917,0,0,0,.944-1.025,3.161,3.161,0,0,0,.36-1.57,3.03,3.03,0,0,0-.36-1.53,2.988,2.988,0,0,0-.97-1.024,4.181,4.181,0,0,0-1.437-.573,8.544,8.544,0,0,0-1.756-.174h-3.326Zm0,8.94H182a9.566,9.566,0,0,0,1.981-.2,5.082,5.082,0,0,0,1.649-.639,3.4,3.4,0,0,0,1.131-1.143,3.647,3.647,0,0,0-.839-4.471,6.01,6.01,0,0,0-3.578-.917h-3.911Z" transform="translate(-176.521 -283.937)" fill="#fff"/>
      <path id="Path_40" data-name="Path 40" d="M196.995,303.252h-1.916v-8.114l-7.05-10.722h2.394l5.667,9.125,5.72-9.125h2.235l-7.05,10.722Z" transform="translate(-173.45 -283.937)" fill="#fff"/>
      <path id="Path_41" data-name="Path 41" d="M216.766,287.922a6.829,6.829,0,0,0-2.341-1.609,7.948,7.948,0,0,0-3.113-.574,7.725,7.725,0,0,0-3.258.665,7.364,7.364,0,0,0-2.46,1.793,8.014,8.014,0,0,0-1.557,2.616,9.272,9.272,0,0,0,0,6.27,7.847,7.847,0,0,0,1.557,2.6,7.473,7.473,0,0,0,2.46,1.78,7.745,7.745,0,0,0,3.258.664,11.612,11.612,0,0,0,2.927-.346,7.455,7.455,0,0,0,2.156-.878v-5.72H212v-1.7h6.305v8.51a12.208,12.208,0,0,1-3.326,1.385,14.87,14.87,0,0,1-3.7.455,10.27,10.27,0,0,1-3.938-.745A9.2,9.2,0,0,1,202.2,297.9a10.477,10.477,0,0,1-.732-3.964,10.319,10.319,0,0,1,.746-3.965,9.353,9.353,0,0,1,5.174-5.187,10.068,10.068,0,0,1,3.9-.745,10.494,10.494,0,0,1,3.939.675,8.5,8.5,0,0,1,2.872,1.878Z" transform="translate(-169.863 -284.038)" fill="#fff"/>
      <path id="Path_42" data-name="Path 42" d="M233.251,287.922a6.836,6.836,0,0,0-2.34-1.609,7.959,7.959,0,0,0-3.114-.574,7.725,7.725,0,0,0-3.258.665,7.382,7.382,0,0,0-2.462,1.793,8.033,8.033,0,0,0-1.556,2.616,9.272,9.272,0,0,0,0,6.27,7.865,7.865,0,0,0,1.556,2.6,7.492,7.492,0,0,0,2.462,1.78,7.745,7.745,0,0,0,3.258.664,11.619,11.619,0,0,0,2.927-.346,7.445,7.445,0,0,0,2.155-.878v-5.72H228.49v-1.7h6.3v8.51a12.143,12.143,0,0,1-3.326,1.385,14.853,14.853,0,0,1-3.7.455,10.266,10.266,0,0,1-3.938-.745,9.2,9.2,0,0,1-5.147-5.188,10.477,10.477,0,0,1-.732-3.964,10.3,10.3,0,0,1,.746-3.965,9.353,9.353,0,0,1,5.174-5.187,10.069,10.069,0,0,1,3.9-.745,10.484,10.484,0,0,1,3.939.675,8.513,8.513,0,0,1,2.872,1.878Z" transform="translate(-165.463 -284.038)" fill="#fff"/>
      <path id="Path_43" data-name="Path 43" d="M259.448,293.935a10.336,10.336,0,0,1-.744,3.964,9.35,9.35,0,0,1-5.174,5.188,10.572,10.572,0,0,1-7.8,0,9.358,9.358,0,0,1-5.175-5.188,10.923,10.923,0,0,1,0-7.929,9.361,9.361,0,0,1,5.175-5.187,10.572,10.572,0,0,1,7.8,0,9.353,9.353,0,0,1,5.174,5.187A10.343,10.343,0,0,1,259.448,293.935Zm-2.021.013a9.276,9.276,0,0,0-.532-3.134,7.872,7.872,0,0,0-1.543-2.616,7.382,7.382,0,0,0-2.462-1.793,8.317,8.317,0,0,0-6.518,0,7.364,7.364,0,0,0-2.46,1.793,7.83,7.83,0,0,0-1.543,2.616,9.5,9.5,0,0,0,0,6.27,7.669,7.669,0,0,0,1.543,2.6,7.474,7.474,0,0,0,2.46,1.78,8.332,8.332,0,0,0,6.518,0,7.491,7.491,0,0,0,2.462-1.78,7.71,7.71,0,0,0,1.543-2.6A9.278,9.278,0,0,0,257.428,293.948Z" transform="translate(-159.629 -284.038)" fill="#fff"/>
      <path id="Path_44" data-name="Path 44" d="M274.657,300.293a7.778,7.778,0,0,1-1.158,1.358,7.52,7.52,0,0,1-1.568,1.126,8.726,8.726,0,0,1-1.97.77,9.234,9.234,0,0,1-2.354.284,10.254,10.254,0,0,1-3.936-.745,9.205,9.205,0,0,1-5.149-5.188,10.453,10.453,0,0,1-.732-3.964,10.319,10.319,0,0,1,.745-3.965,9.361,9.361,0,0,1,5.175-5.187,10.073,10.073,0,0,1,3.9-.745,9.725,9.725,0,0,1,3.911.823,8.048,8.048,0,0,1,1.6.941,5.508,5.508,0,0,1,1.2,1.242l-1.6,1.171a4.759,4.759,0,0,0-.784-.9,5.284,5.284,0,0,0-1.158-.8,7.308,7.308,0,0,0-1.449-.56,6.5,6.5,0,0,0-1.689-.213,7.813,7.813,0,0,0-3.286.664,7.4,7.4,0,0,0-2.462,1.79,7.8,7.8,0,0,0-1.542,2.612,9.179,9.179,0,0,0-.532,3.129,9,9,0,0,0,.544,3.129,8.009,8.009,0,0,0,1.557,2.611,7.387,7.387,0,0,0,2.46,1.791,7.776,7.776,0,0,0,3.261.663,7.367,7.367,0,0,0,3.085-.665,5.87,5.87,0,0,0,2.449-2.128Z" transform="translate(-154.831 -284.038)" fill="#fff"/>
      <path id="Path_45" data-name="Path 45" d="M273.833,284.416h1.917v8.168h10.268v-8.168h1.916v18.836h-1.916v-8.913H275.75v8.913h-1.917Z" transform="translate(-150.549 -283.937)" fill="#fff"/>
      <path id="Path_46" data-name="Path 46" d="M294.413,284.416h5.615a10.607,10.607,0,0,1,2.155.226,5.868,5.868,0,0,1,1.955.773,4.25,4.25,0,0,1,1.41,1.476,4.585,4.585,0,0,1,.546,2.34,3.952,3.952,0,0,1-.911,2.595,4.263,4.263,0,0,1-2.432,1.451v.053a4.962,4.962,0,0,1,3.039,1.423A4.452,4.452,0,0,1,307,298.038a4.622,4.622,0,0,1-1.886,3.792,6.716,6.716,0,0,1-2.2,1.05,10.6,10.6,0,0,1-2.92.373h-5.576Zm1.917,8.246h3.858a6.315,6.315,0,0,0,1.4-.16,3.9,3.9,0,0,0,1.291-.544,2.929,2.929,0,0,0,.944-1.025,3.161,3.161,0,0,0,.359-1.57,3.029,3.029,0,0,0-.359-1.53,2.98,2.98,0,0,0-.972-1.024,4.175,4.175,0,0,0-1.435-.573,8.562,8.562,0,0,0-1.756-.174H296.33Zm0,8.94h3.564a9.578,9.578,0,0,0,1.983-.2,5.075,5.075,0,0,0,1.648-.639,3.389,3.389,0,0,0,1.131-1.143,3.648,3.648,0,0,0-.837-4.471,6.012,6.012,0,0,0-3.578-.917H296.33Z" transform="translate(-145.057 -283.937)" fill="#fff"/>
      <path id="Path_47" data-name="Path 47" d="M309.81,301.549h10.083v1.7h-12V284.416h11.68v1.7H309.81v6.466h9.125v1.7H309.81Z" transform="translate(-141.459 -283.937)" fill="#fff"/>
      <path id="Path_48" data-name="Path 48" d="M329.766,300.006h.025l6.307-15.59h2.925v18.836h-1.914V286.89h-.053l-6.811,16.362h-1.011l-6.811-16.362h-.053v16.362h-1.917V284.416h2.928Z" transform="translate(-138.107 -283.937)" fill="#fff"/>
      <path id="Path_49" data-name="Path 49" d="M339.523,303.252h-2.1l8.141-18.836h1.862l8.088,18.836h-2.128l-2.075-4.948h-9.737Zm2.767-6.7h8.3l-4.15-10Z" transform="translate(-133.579 -283.937)" fill="#fff"/>
      <path id="Path_50" data-name="Path 50" d="M367.366,300.459h.053V284.416h1.916v18.836h-2.394l-10.961-16.2h-.053v16.2h-1.916V284.416h2.394Z" transform="translate(-129.151 -283.937)" fill="#fff"/>
      <path id="Path_51" data-name="Path 51" d="M383.537,300.459h.053V284.416h1.915v18.836h-2.394l-10.961-16.2H372.1v16.2h-1.915V284.416h2.394Z" transform="translate(-124.835 -283.937)" fill="#fff"/>
      <path id="Path_52" data-name="Path 52" d="M388.266,303.252h-1.915V284.416h1.915Z" transform="translate(-120.52 -283.937)" fill="#fff"/>
      <path id="Path_53" data-name="Path 53" d="M405.291,300.459h.053V284.416h1.916v18.836h-2.394L393.9,287.05h-.053v16.2h-1.915V284.416h2.394Z" transform="translate(-119.029 -283.937)" fill="#fff"/>
      <path id="Path_54" data-name="Path 54" d="M422.606,287.922a6.853,6.853,0,0,0-2.341-1.609,7.952,7.952,0,0,0-3.113-.574,7.735,7.735,0,0,0-3.26.665,7.394,7.394,0,0,0-2.462,1.793,8.033,8.033,0,0,0-1.556,2.616,9.292,9.292,0,0,0,0,6.27,7.864,7.864,0,0,0,1.556,2.6,7.5,7.5,0,0,0,2.462,1.78,7.755,7.755,0,0,0,3.26.664,11.626,11.626,0,0,0,2.926-.346,7.459,7.459,0,0,0,2.155-.878v-5.72h-4.39v-1.7h6.305v8.51a12.176,12.176,0,0,1-3.326,1.385,14.868,14.868,0,0,1-3.7.455,10.261,10.261,0,0,1-3.937-.745,9.2,9.2,0,0,1-5.147-5.188,10.453,10.453,0,0,1-.732-3.964,10.319,10.319,0,0,1,.745-3.965,9.354,9.354,0,0,1,5.174-5.187,10.079,10.079,0,0,1,3.9-.745,10.482,10.482,0,0,1,3.937.675,8.506,8.506,0,0,1,2.873,1.878Z" transform="translate(-114.926 -284.038)" fill="#fff"/>
    </g>
  </g>
</svg>
